# xmcd
# 
# Track frame offsets:
#     182
#     13105
#     27280
#     41907
#     56730
#     70012
#     84302
#     97350
#     110520
#     124227
#     136685
#     150920
#     165777
#     180500
#     195157
#     208290
#     221810
#     234995
#     246890
#     258172
#     269145
#     282152
#     298462
#     310650
# 
# Disc length: 4321
# 
# Revision: 2
# Processed by: cddbd v1.5.2PL0 Copyright (c) Steve Scherf et al.
# Submitted via: fre:ac v1.0.27
# 
DISCID=5d10df18
DTITLE=Sidney Bechet - Les années 30
DYEAR=0
DGENRE=Jazz
TTITLE0=Sweetie Dear
TTITLE1=I Want You Tonight
TTITLE2=I've Found A New Baby
TTITLE3=Lay Your Racket
TTITLE4=Maple Leaf Rag
TTITLE5=Shag
TTITLE6=Okey Doke
TTITLE7=Characteristic Blues
TTITLE8=Viper Mad
TTITLE9=Blackstick
TTITLE10=When The Sun Sets Down South
TTITLE11=Sweet Patootie
TTITLE12=Freight Train Blues
TTITLE13=Trixie Blues
TTITLE14=My Daddy Rocks Me (Part I)
TTITLE15=My Daddy Rocks Me (Part II)
TTITLE16=What A Dream
TTITLE17=Hold Tight
TTITLE18=Jungle Drums
TTITLE19=Chant In The Night
TTITLE20=Ja-Da
TTITLE21=Really The Blues
TTITLE22=When You And I Were Young Maggie
TTITLE23=Weary Blues
EXTD=The Essential Volume 2
EXTT0=
EXTT1=
EXTT2=
EXTT3=
EXTT4=
EXTT5=
EXTT6=
EXTT7=
EXTT8=
EXTT9=
EXTT10=
EXTT11=
EXTT12=
EXTT13=
EXTT14=
EXTT15=
EXTT16=
EXTT17=
EXTT18=
EXTT19=
EXTT20=
EXTT21=
EXTT22=
EXTT23=
PLAYORDER=
